HIERARCHY
ROOT root
{
	OFFSET 0.000000 0.000000 0.000000
	CHANNELS 6 Xposition Yposition Zposition Zrotation Yrotation Xrotation
	JOINT lhip
	{
		OFFSET 0.058581 -0.082280 -0.017664
		CHANNELS 3 Zrotation Yrotation Xrotation
		JOINT lknee
		{
			OFFSET 0.043451 -0.386469 0.008037
			CHANNELS 3 Zrotation Yrotation Xrotation
			JOINT lankle
			{
				OFFSET -0.014790 -0.426874 -0.037428
				CHANNELS 3 Zrotation Yrotation Xrotation
				JOINT ltoe
				{
					OFFSET 0.041054 -0.060286 0.122042
					CHANNELS 3 Zrotation Yrotation Xrotation
					End Site
					{
						OFFSET 0.000000 0.000000 0.000000
					}
				}
			}
		}
	}
	JOINT rhip
	{
		OFFSET -0.060310 -0.090513 -0.013543
		CHANNELS 3 Zrotation Yrotation Xrotation
		JOINT rknee
		{
			OFFSET -0.043257 -0.383688 -0.004843
			CHANNELS 3 Zrotation Yrotation Xrotation
			JOINT rankle
			{
				OFFSET 0.019056 -0.420046 -0.034562
				CHANNELS 3 Zrotation Yrotation Xrotation
				JOINT rtoe
				{
					OFFSET -0.034840 -0.062106 0.130323
					CHANNELS 3 Zrotation Yrotation Xrotation
					End Site
					{
						OFFSET 0.000000 0.000000 0.000000
					}
				}
			}
		}
	}
	JOINT lowerback
	{
		OFFSET 0.004439 0.124404 -0.038385
		CHANNELS 3 Zrotation Yrotation Xrotation
		JOINT upperback
		{
			OFFSET 0.004488 0.137956 0.026820
			CHANNELS 3 Zrotation Yrotation Xrotation
			JOINT chest
			{
				OFFSET -0.002265 0.056032 0.002855
				CHANNELS 3 Zrotation Yrotation Xrotation
				JOINT lowerneck
				{
					OFFSET -0.013390 0.211636 -0.033468
					CHANNELS 3 Zrotation Yrotation Xrotation
					JOINT upperneck
					{
						OFFSET 0.010113 0.088937 0.050410
						CHANNELS 3 Zrotation Yrotation Xrotation
						End Site
						{
							OFFSET 0.000000 0.000000 0.000000
						}
					}
				}
				JOINT lclavicle
				{
					OFFSET 0.071702 0.114000 -0.018898
					CHANNELS 3 Zrotation Yrotation Xrotation
					JOINT lshoulder
					{
						OFFSET 0.122921 0.045205 -0.019046
						CHANNELS 3 Zrotation Yrotation Xrotation
						JOINT lelbow
						{
							OFFSET 0.255332 -0.015649 -0.022946
							CHANNELS 3 Zrotation Yrotation Xrotation
							JOINT lwrist
							{
								OFFSET 0.265709 0.012698 -0.007375
								CHANNELS 3 Zrotation Yrotation Xrotation
								End Site
								{
									OFFSET 0.000000 0.000000 0.000000
								}
							}
						}
					}
				}
				JOINT rclavicle
				{
					OFFSET -0.082954 0.112472 -0.023707
					CHANNELS 3 Zrotation Yrotation Xrotation
					JOINT rshoulder
					{
						OFFSET -0.113228 0.046853 -0.008472
						CHANNELS 3 Zrotation Yrotation Xrotation
						JOINT relbow
						{
							OFFSET -0.260127 -0.014369 -0.031269
							CHANNELS 3 Zrotation Yrotation Xrotation
							JOINT rwrist
							{
								OFFSET -0.269108 0.006794 -0.006027
								CHANNELS 3 Zrotation Yrotation Xrotation
								End Site
								{
									OFFSET 0.000000 0.000000 0.000000
								}
							}
						}
					}
				}
			}
		}
	}
}
MOTION
Frames: 5
Frame Time: 0.033333
2.234057 0.796329 0.983396 -90.587714 2.320044 92.127237 6.639510 -1.124083 -11.675044 -2.714814 -7.148340 17.036374 3.177951 10.933840 -14.004960 0.000000 -0.000000 0.000000 -2.084013 -1.845980 -15.175269 0.696040 -2.157578 16.371162 5.385238 -1.670294 -7.690072 0.000000 -0.000000 0.000000 -1.254756 5.136644 18.947121 3.300002 -0.551543 3.738594 2.180522 0.900274 4.219452 2.995800 0.581389 14.081908 5.025232 -10.296464 15.295504 -19.738839 -2.227251 4.742544 -65.786232 -8.538146 13.530075 14.768351 -38.144705 18.365564 11.594070 3.912281 1.316780 21.441744 1.546250 6.364256 66.074366 2.848821 7.702409 -24.336730 30.273887 -1.560571 -5.222257 -4.434014 -3.550697 
2.232153 0.797712 0.983596 -90.817552 2.270738 92.257472 6.650050 -0.711349 -11.488973 -2.635957 -7.088860 16.750491 3.121267 10.717789 -14.014697 0.000000 -0.000000 0.000000 -1.975959 -1.780011 -15.192054 0.528111 -2.319278 16.391263 5.228817 -1.306560 -7.746477 0.000000 -0.000000 0.000000 -1.216605 5.092366 19.307579 3.388153 -0.582168 4.068077 2.267521 0.927836 4.099293 2.894260 0.638752 14.552399 4.976661 -9.903750 15.208629 -19.916028 -2.395475 4.923605 -65.733706 -8.368235 13.403641 14.768261 -37.982152 18.894167 10.968911 4.096453 2.903616 21.623060 1.671206 6.599251 65.908835 2.595452 7.101327 -23.789084 28.857637 -1.091164 -3.525002 -4.388077 -3.723312 
2.230660 0.798806 0.983234 -90.611197 2.342124 92.723733 6.797084 -0.841531 -11.981416 -2.605463 -7.209787 16.885934 3.039662 10.793812 -14.040157 0.000000 -0.000000 0.000000 -1.831951 -1.553093 -15.646261 0.533593 -2.382793 16.575581 4.993428 -1.639317 -7.921914 0.000000 -0.000000 0.000000 -0.979651 4.841259 19.271386 3.536297 -0.687385 3.945363 2.265933 0.784333 4.291083 2.883616 0.580164 15.058016 4.945447 -9.694627 15.316771 -19.601169 -2.477098 5.340296 -66.060893 -7.967734 13.784249 14.274665 -37.164121 20.773436 12.376241 3.670583 3.226942 21.389459 1.641716 7.012390 66.163895 2.565502 6.985394 -22.851130 27.275639 -0.118333 -4.400272 -4.318934 -4.134343 
2.226252 0.800534 0.983528 -90.762450 2.108628 92.820762 6.719802 -0.647274 -11.369495 -2.680724 -7.289965 16.209622 3.014995 10.989545 -14.082295 0.000000 -0.000000 0.000000 -1.920736 -1.418912 -15.618197 0.482700 -2.251169 16.926896 4.874135 -1.609219 -8.280256 0.000000 -0.000000 0.000000 -1.095763 4.708767 19.513332 3.582959 -0.713735 4.102065 2.360161 0.606095 4.349677 2.915495 0.551918 15.517810 4.947438 -9.405315 15.342314 -19.894145 -2.329566 5.698066 -66.142869 -7.547625 13.737226 14.542472 -37.032693 20.954851 13.216574 3.840849 3.364589 21.534816 1.587488 7.123653 66.403303 2.295516 6.822968 -22.111326 25.378964 0.591137 -4.827664 -4.770243 -3.452953 
2.224764 0.801037 0.983571 -90.828873 2.068093 92.928361 6.730931 -0.586546 -11.254089 -2.706421 -7.300764 16.001157 3.041818 11.035538 -14.086012 0.000000 -0.000000 0.000000 -1.929384 -1.373763 -15.643310 0.508720 -2.185842 16.947055 4.784572 -1.603132 -8.438256 0.000000 -0.000000 0.000000 -1.045302 4.601982 19.548658 3.565887 -0.733590 4.062676 2.345924 0.532485 4.358102 2.861694 0.564108 15.639597 4.958167 -9.275408 15.281427 -19.923933 -2.172443 5.746385 -66.234167 -7.369367 13.694783 14.512749 -36.895318 21.179594 13.628532 3.933997 3.372069 21.496872 1.505304 7.150342 66.553774 2.257545 6.830513 -21.790317 24.823959 1.055459 -5.202004 -4.832248 -3.168843 
